{"title":"50 Cent - Disco Inferno Uncensored DVDRip xvid-GreatMagician","uid":4983852,"size":53620092,"categoryP":"video","categoryS":"music_videos","magnet":"?xt=urn:btih:fdea1211a2c0c8c71a2c7791c388514e11214203&amp;dn=50+Cent+-+Disco+Inferno+Uncensored+DVDRip+xvid-GreatMagician&amp;tr=udp%3A%2F%2Ftracker.openbittorrent.com%3A80&amp;tr=udp%3A%2F%2Fopen.demonii.com%3A1337&amp;tr=udp%3A%2F%2Ftracker.coppersurfer.tk%3A6969&amp;tr=udp%3A%2F%2Fexodus.desync.com%3A6969","seeders":1,"leechers":1,"uploader":"GreatMagician","files":6,"time":1246508192,"description":"/    ))            (o)__(o)\n    (OO)  (Oo)-. wWw   /)(__  __)\n  ,'.--.)  | (_))(O)_(o)(O)(  )\n / /|_|_  |  .'.' __)//\\  )(\n | _.--.  )|\\(  _) |(__)|(  )\n '.   ) (/  )`.__)/,-. | )/\n   `-.(_.' )        -'   ''(\n \\    ///           /   wW  Ww   c  cwW  Ww      \\  ///\n ((O)  (O))   /)     (OO)  (O)(O)   (OO)(O)(O)  /)  ((O)(O))\n  |   / |  (o)(O) ,'.--.)  (..)  ,'.--.)(..) (o)(O) |  ||\n  ||\\//||   //\\ / /|_|_   ||  / //_|_ ||   //\\  ||\\||\n  || / ||  |(__)|| _.--.  _||_ | ___  _||_ |(__)| ||  |\n  ||    ||  /,-. |'.   ) (_/_)'.    )(_/_)/,-. | ||  ||\n (_/    _)-'   ''  `-.(_.'        `-.'      -'   ''(_/  _)\n &lt;a href=&quot;\nhttp://img30.imageshack.us/img30/8125/magicain1.gif&quot; rel=&quot;nofollow&quot; target=&quot;_NEW&quot;&gt;\nhttp://img30.imageshack.us/img30/8125/magicain1.gif&lt;/a&gt; &lt;a href=&quot;\nhttp://img213.imageshack.us/img213/974/50cent.png&quot; rel=&quot;nofollow&quot; target=&quot;_NEW&quot;&gt;\nhttp://img213.imageshack.us/img213/974/50cent.png&lt;/a&gt; &lt;a href=&quot;\nhttp://img406.imageshack.us/img406/9378/50centdiscoinferno.jpg&quot; rel=&quot;nofollow&quot; target=&quot;_NEW&quot;&gt;\nhttp://img406.imageshack.us/img406/9378/50centdiscoinferno.jpg&lt;/a&gt;\n\n\n50 Cent - Disco Inferno Uncensored\n\n[*]Video\nFormat                           : h264\nCodec ID                         : h264\nDuration                         : 3mn 34s\nBit rate                         : 1 841 Kbps\nWidth                            : 640 pixels\nHeight                           : 480 pixels\nDisplay aspect ratio             : 4/3\nFrame rate                       : 25.000 fps\nResolution                       : 24 bits\nBits/(Pixel*Frame)               : 0.240\nStream size                      : 47.1 MiB (93%)\n\nAudio\nID                               : 1\nFormat                           : MPEG Audio\nFormat version                   : Version 1\nFormat profile                   : Layer 3\nCodec ID                         : 55\nCodec ID/Hint                    : MP3\nDuration                         : 3mn 34s\nBit rate mode                    : Constant\nBit rate                         : 128 Kbps\nChannel(s)                       : 2 channels\nSampling rate                    : 48.0 KHz\nResolution                       : 16 bits\nVideo delay                      : 40ms\nStream size                      : 3.28 MiB (6%)\nAlignment                        : Aligned on interleaves\nInterleave, duration             : 24 ms (0.60 video frame)\nInterleave, preload duration     : 504 ms\nWriting library                  : LAME3.98\n\n\n\n\n","torrent":{"xt":"urn:btih:fdea1211a2c0c8c71a2c7791c388514e11214203","amp;dn":"50+Cent+-+Disco+Inferno+Uncensored+DVDRip+xvid-GreatMagician","amp;tr":["udp%3A%2F%2Ftracker.openbittorrent.com%3A80","udp%3A%2F%2Fopen.demonii.com%3A1337","udp%3A%2F%2Ftracker.coppersurfer.tk%3A6969","udp%3A%2F%2Fexodus.desync.com%3A6969"],"infoHash":"fdea1211a2c0c8c71a2c7791c388514e11214203","infoHashBuffer":{"type":"Buffer","data":[253,234,18,17,162,192,200,199,26,44,119,145,195,136,81,78,17,33,66,3]},"announce":[],"urlList":[]}}